<?xml version="1.0" encoding="iso-8859-1"?>
<!-- Generator: Adobe Illustrator 18.0.0, SVG Export Plug-In . SVG Version: 6.00 Build 0)  -->
<!DOCTYPE svg PUBLIC "-//W3C//DTD SVG 1.1//EN" "http://www.w3.org/Graphics/SVG/1.1/DTD/svg11.dtd">
<svg version="1.1" id="Capa_1" xmlns="http://www.w3.org/2000/svg" xmlns:xlink="http://www.w3.org/1999/xlink" x="0px" y="0px"
	 viewBox="0 0 251.882 251.882" style="enable-background:new 0 0 251.882 251.882;" xml:space="preserve">
<g>
	<path d="M104.803,75.208c-3.363-1.396-7.234-0.624-9.808,1.95l-42.418,42.418c-3.515,3.515-3.515,9.214,0,12.729l42.418,42.418
		c1.722,1.722,4.023,2.636,6.366,2.636c1.159,0,2.329-0.224,3.442-0.686c3.363-1.393,5.556-4.674,5.556-8.314V83.523
		C110.359,79.882,108.166,76.601,104.803,75.208z M92.359,146.631l-20.69-20.69l20.69-20.69V146.631z"/>
	<path d="M156.887,77.159c-2.574-2.573-6.444-3.346-9.808-1.95c-3.363,1.393-5.556,4.674-5.556,8.314v84.836
		c0,3.641,2.193,6.922,5.556,8.314c1.114,0.462,2.283,0.686,3.442,0.686c2.342,0,4.644-0.914,6.366-2.636l42.418-42.418
		c3.515-3.515,3.515-9.214,0-12.729L156.887,77.159z M159.523,146.631V105.25l20.69,20.69L159.523,146.631z"/>
	<path d="M215.036,36.845c-49.127-49.127-129.063-49.127-178.19,0c-49.127,49.128-49.127,129.063,0,178.191
		c24.563,24.563,56.83,36.846,89.095,36.846s64.532-12.282,89.095-36.846C264.164,165.909,264.164,85.973,215.036,36.845z
		 M202.309,202.308c-42.109,42.109-110.626,42.109-152.735,0C7.465,160.2,7.465,91.682,49.573,49.574
		c21.055-21.055,48.711-31.582,76.368-31.582s55.313,10.527,76.368,31.582C244.418,91.682,244.418,160.2,202.309,202.308z"/>
</g>
<g>
</g>
<g>
</g>
<g>
</g>
<g>
</g>
<g>
</g>
<g>
</g>
<g>
</g>
<g>
</g>
<g>
</g>
<g>
</g>
<g>
</g>
<g>
</g>
<g>
</g>
<g>
</g>
<g>
</g>
</svg>
